<?xml version="1.0" encoding="UTF-8"?>
<!DOCTYPE svg PUBLIC "-//W3C//DTD SVG 1.1//EN" "http://www.w3.org/Graphics/SVG/1.1/DTD/svg11.dtd">
<!-- Creator: CorelDRAW 2019 (64 Bit) -->
<svg xmlns="http://www.w3.org/2000/svg" xml:space="preserve" width="709px" height="709px" version="1.1" style="shape-rendering:geometricPrecision; text-rendering:geometricPrecision; image-rendering:optimizeQuality; fill-rule:evenodd; clip-rule:evenodd"
viewBox="0 0 709 709"
 xmlns:xlink="http://www.w3.org/1999/xlink">
 <defs>
  <style type="text/css">
   <![CDATA[
    .str0 {stroke:#373435;stroke-width:2.36;stroke-miterlimit:22.9256}
    .str1 {stroke:#201E1E;stroke-width:2.36;stroke-miterlimit:22.9256}
    .str2 {stroke:black;stroke-width:2.36;stroke-miterlimit:22.9256}
    .fil1 {fill:none}
    .fil3 {fill:#FEFEFE}
    .fil0 {fill:black}
    .fil2 {fill:#FEFEFE;fill-rule:nonzero}
    .fil4 {fill:#201E1E;fill-rule:nonzero}
   ]]>
  </style>
    <clipPath id="id0">
     <path d="M195.32 476.23l458.2 0 16.51 0 0 16.51 0 25.32 0 6.84c0,9.08 -7.43,16.51 -16.51,16.51l-458.2 0c-9.08,0 -16.51,-7.43 -16.51,-16.51l0 -6.84 0 -25.32 0 -16.51 16.51 0z"/>
    </clipPath>
 </defs>
 <g id="Camada_x0020_1">
  <metadata id="CorelCorpID_0Corel-Layer"/>
  <g id="_1768777960848">
   <path class="fil0" d="M195.32 476.23l458.2 0 16.51 0 0 16.51 0 25.32 0 6.84c0,9.08 -7.43,16.51 -16.51,16.51l-458.2 0c-9.08,0 -16.51,-7.43 -16.51,-16.51l0 -6.84 0 -25.32 0 -16.51 16.51 0z"/>
   <g style="clip-path:url(#id0)">
    <g>
     <rect class="fil1 str0" x="267.64" y="708.58" width="120.71" height="82.99"/>
    </g>
   </g>
   <path class="fil1" d="M195.32 476.23l458.2 0 16.51 0 0 16.51 0 25.32 0 6.84c0,9.08 -7.43,16.51 -16.51,16.51l-458.2 0c-9.08,0 -16.51,-7.43 -16.51,-16.51l0 -6.84 0 -25.32 0 -16.51 16.51 0z"/>
   <path class="fil2" d="M201.47 506.49l3.85 0c1.94,0 3.29,-0.33 4.04,-0.98 0.76,-0.65 1.13,-1.82 1.13,-3.51 0,-1.5 -0.41,-2.55 -1.23,-3.16 -0.83,-0.6 -2.32,-0.9 -4.5,-0.9l-3.29 0 0 8.55zm-6.44 17.43l0 -30.19 11.97 0c3.62,0 6.24,0.61 7.83,1.85 1.6,1.24 2.39,3.25 2.39,6.05 0,1.96 -0.43,3.51 -1.29,4.63 -0.85,1.14 -2.11,1.8 -3.78,2 3.18,0.7 4.84,2.96 4.98,6.76 0,0.17 0,0.3 0,0.39l0.19 4c0.06,1.14 0.23,2.05 0.5,2.74 0.28,0.68 0.72,1.27 1.31,1.77l-7.94 0c-0.18,-0.51 -0.32,-1.11 -0.42,-1.79 -0.09,-0.69 -0.15,-1.66 -0.18,-2.92l-0.1 -3.15 0 -0.81c0,-1.74 -0.44,-2.95 -1.32,-3.6 -0.89,-0.65 -2.69,-0.98 -5.42,-0.98l-2.28 0 0 13.25 -6.44 0zm36.23 -15.09c0,4.97 0.35,8.1 1.04,9.38 0.69,1.29 1.97,1.93 3.83,1.93 1.83,0 3.09,-0.62 3.76,-1.89 0.68,-1.26 1.01,-4.4 1.01,-9.42 0,-5.02 -0.34,-8.17 -1.02,-9.45 -0.69,-1.28 -1.95,-1.92 -3.8,-1.92 -1.84,0 -3.1,0.64 -3.79,1.92 -0.68,1.28 -1.03,4.43 -1.03,9.45zm-6.82 -0.01c0,-3.2 0.18,-5.76 0.53,-7.67 0.36,-1.92 0.93,-3.36 1.68,-4.33 1.04,-1.37 2.28,-2.35 3.73,-2.94 1.44,-0.58 3.34,-0.88 5.7,-0.88 2.37,0 4.27,0.3 5.71,0.88 1.44,0.59 2.69,1.57 3.75,2.94 0.75,1 1.31,2.45 1.66,4.36 0.35,1.91 0.53,4.45 0.53,7.64 0,3.18 -0.18,5.72 -0.54,7.64 -0.35,1.91 -0.91,3.36 -1.65,4.36 -1.06,1.37 -2.31,2.35 -3.75,2.94 -1.44,0.59 -3.34,0.88 -5.71,0.88 -2.36,0 -4.26,-0.29 -5.7,-0.88 -1.45,-0.59 -2.69,-1.57 -3.73,-2.94 -0.75,-0.97 -1.32,-2.41 -1.68,-4.32 -0.35,-1.92 -0.53,-4.48 -0.53,-7.68zm30.63 4.5l6.68 0 0 1.94c0,1.85 0.28,3.12 0.83,3.79 0.55,0.68 1.5,1.01 2.86,1.01 1.41,0 2.49,-0.3 3.22,-0.9 0.74,-0.6 1.11,-1.49 1.11,-2.66 0,-0.91 -0.25,-1.68 -0.77,-2.33 -0.51,-0.64 -1.62,-1.48 -3.33,-2.5l-3.42 -2.04c-2.96,-1.72 -4.84,-3.15 -5.64,-4.27 -0.8,-1.13 -1.2,-2.54 -1.2,-4.24 0,-2.54 0.89,-4.52 2.68,-5.96 1.79,-1.44 4.25,-2.16 7.39,-2.16 3.33,0 5.87,0.76 7.65,2.3 1.77,1.52 2.65,3.72 2.65,6.58 0,0.29 0,0.51 0,0.67 -0.01,0.15 -0.03,0.29 -0.04,0.41l-6.35 0 0 -0.8c0,-1.64 -0.32,-2.81 -0.96,-3.52 -0.63,-0.71 -1.68,-1.06 -3.14,-1.06 -1.07,0 -1.91,0.27 -2.52,0.8 -0.61,0.52 -0.92,1.26 -0.92,2.2 0,1.28 1.37,2.68 4.12,4.23l0.07 0.03 3.68 2.1c2.63,1.47 4.4,2.85 5.33,4.15 0.93,1.3 1.4,2.95 1.4,4.97 0,2.74 -0.93,4.86 -2.8,6.35 -1.86,1.49 -4.52,2.23 -7.98,2.23 -3.61,0 -6.28,-0.78 -8.05,-2.35 -1.76,-1.56 -2.64,-3.96 -2.64,-7.17 0,-0.34 0.03,-0.9 0.09,-1.68l0 -0.12zm43.66 -0.16l6.49 0c0,0.13 0.01,0.32 0.03,0.57 0.01,0.26 0.02,0.46 0.02,0.61 0,3.48 -0.87,6.07 -2.62,7.77 -1.74,1.69 -4.42,2.53 -8.02,2.53 -1.71,0 -3.18,-0.19 -4.4,-0.55 -1.23,-0.38 -2.29,-0.96 -3.17,-1.74 -1.21,-1.05 -2.07,-2.49 -2.56,-4.31 -0.5,-1.84 -0.75,-5.02 -0.75,-9.57 0,-3.11 0.15,-5.58 0.45,-7.42 0.29,-1.84 0.74,-3.2 1.37,-4.11 0.96,-1.38 2.16,-2.39 3.59,-3.01 1.43,-0.62 3.25,-0.93 5.48,-0.93 3.63,0 6.28,0.8 7.94,2.39 1.65,1.6 2.48,4.16 2.5,7.69l-6.49 0 0 -0.72c0,-1.64 -0.32,-2.85 -0.95,-3.66 -0.62,-0.8 -1.58,-1.2 -2.87,-1.2 -1.6,0 -2.69,0.55 -3.27,1.67 -0.58,1.11 -0.88,4.18 -0.88,9.21 0,5.43 0.29,8.75 0.85,9.92 0.57,1.18 1.66,1.76 3.26,1.76 1.48,0 2.53,-0.46 3.12,-1.38 0.59,-0.92 0.88,-2.62 0.88,-5.11l0 -0.41zm21.43 -1.37l5.68 0 -2.86 -12.66 -2.82 12.66zm-9.59 12.13l8.08 -30.19 8.96 0 8.15 30.19 -7.2 0 -1.76 -7.59 -7.68 0 -1.73 7.59 -6.82 0zm30.62 -10.6l6.69 0 0 1.94c0,1.85 0.28,3.12 0.83,3.79 0.55,0.68 1.5,1.01 2.85,1.01 1.42,0 2.49,-0.3 3.23,-0.9 0.74,-0.6 1.11,-1.49 1.11,-2.66 0,-0.91 -0.26,-1.68 -0.77,-2.33 -0.51,-0.64 -1.63,-1.48 -3.34,-2.5l-3.42 -2.04c-2.95,-1.72 -4.83,-3.15 -5.64,-4.27 -0.8,-1.13 -1.2,-2.54 -1.2,-4.24 0,-2.54 0.89,-4.52 2.68,-5.96 1.79,-1.44 4.26,-2.16 7.39,-2.16 3.33,0 5.88,0.76 7.65,2.3 1.78,1.52 2.66,3.72 2.66,6.58 0,0.29 0,0.51 -0.01,0.67 -0.01,0.15 -0.02,0.29 -0.04,0.41l-6.35 0 0 -0.8c0,-1.64 -0.31,-2.81 -0.95,-3.52 -0.64,-0.71 -1.69,-1.06 -3.14,-1.06 -1.07,0 -1.91,0.27 -2.52,0.8 -0.61,0.52 -0.93,1.26 -0.93,2.2 0,1.28 1.38,2.68 4.13,4.23l0.07 0.03 3.68 2.1c2.62,1.47 4.4,2.85 5.33,4.15 0.93,1.3 1.4,2.95 1.4,4.97 0,2.74 -0.93,4.86 -2.8,6.35 -1.86,1.49 -4.53,2.23 -7.99,2.23 -3.6,0 -6.28,-0.78 -8.05,-2.35 -1.75,-1.56 -2.64,-3.96 -2.64,-7.17 0,-0.34 0.04,-0.9 0.09,-1.68l0 -0.12zm59.8 6.14l2.96 0c1.51,0 2.57,-0.09 3.17,-0.27 0.6,-0.18 1.09,-0.5 1.45,-0.95 0.62,-0.78 1.06,-1.85 1.33,-3.21 0.26,-1.37 0.39,-3.56 0.39,-6.56 0,-2.93 -0.15,-5.06 -0.46,-6.39 -0.31,-1.34 -0.84,-2.34 -1.59,-3.01 -0.39,-0.35 -0.89,-0.59 -1.5,-0.72 -0.61,-0.14 -1.58,-0.21 -2.88,-0.21l-2.87 0 0 21.32zm-6.54 4.46l0 -30.19 10.74 0c2.19,0 3.93,0.15 5.23,0.46 1.3,0.32 2.36,0.83 3.2,1.54 1.26,1.03 2.15,2.33 2.67,3.9 0.52,1.58 0.78,4.03 0.78,7.35 0,4.28 -0.18,7.32 -0.53,9.09 -0.36,1.77 -0.97,3.27 -1.82,4.52 -0.82,1.23 -1.98,2.1 -3.44,2.59 -1.47,0.49 -4.02,0.74 -7.63,0.74l-9.2 0zm36.74 -15.09c0,4.97 0.34,8.1 1.04,9.38 0.69,1.29 1.97,1.93 3.83,1.93 1.83,0 3.09,-0.62 3.76,-1.89 0.68,-1.26 1.01,-4.4 1.01,-9.42 0,-5.02 -0.34,-8.17 -1.02,-9.45 -0.69,-1.28 -1.95,-1.92 -3.8,-1.92 -1.84,0 -3.11,0.64 -3.79,1.92 -0.69,1.28 -1.03,4.43 -1.03,9.45zm-6.82 -0.01c0,-3.2 0.17,-5.76 0.53,-7.67 0.36,-1.92 0.92,-3.36 1.68,-4.33 1.04,-1.37 2.28,-2.35 3.73,-2.94 1.44,-0.58 3.34,-0.88 5.7,-0.88 2.36,0 4.27,0.3 5.7,0.88 1.45,0.59 2.7,1.57 3.76,2.94 0.75,1 1.31,2.45 1.66,4.36 0.35,1.91 0.52,4.45 0.52,7.64 0,3.18 -0.17,5.72 -0.53,7.64 -0.36,1.91 -0.91,3.36 -1.65,4.36 -1.06,1.37 -2.31,2.35 -3.76,2.94 -1.43,0.59 -3.34,0.88 -5.7,0.88 -2.36,0 -4.26,-0.29 -5.7,-0.88 -1.45,-0.59 -2.69,-1.57 -3.73,-2.94 -0.76,-0.97 -1.32,-2.41 -1.68,-4.32 -0.36,-1.92 -0.53,-4.48 -0.53,-7.68zm30.62 4.5l6.69 0 0 1.94c0,1.85 0.28,3.12 0.83,3.79 0.55,0.68 1.5,1.01 2.85,1.01 1.42,0 2.49,-0.3 3.23,-0.9 0.74,-0.6 1.11,-1.49 1.11,-2.66 0,-0.91 -0.26,-1.68 -0.77,-2.33 -0.51,-0.64 -1.62,-1.48 -3.33,-2.5l-3.42 -2.04c-2.96,-1.72 -4.84,-3.15 -5.64,-4.27 -0.81,-1.13 -1.2,-2.54 -1.2,-4.24 0,-2.54 0.89,-4.52 2.68,-5.96 1.79,-1.44 4.25,-2.16 7.39,-2.16 3.33,0 5.87,0.76 7.65,2.3 1.77,1.52 2.65,3.72 2.65,6.58 0,0.29 0,0.51 -0.01,0.67 0,0.15 -0.02,0.29 -0.04,0.41l-6.34 0 0 -0.8c0,-1.64 -0.32,-2.81 -0.96,-3.52 -0.63,-0.71 -1.68,-1.06 -3.14,-1.06 -1.07,0 -1.91,0.27 -2.52,0.8 -0.61,0.52 -0.92,1.26 -0.92,2.2 0,1.28 1.37,2.68 4.12,4.23l0.07 0.03 3.68 2.1c2.63,1.47 4.4,2.85 5.33,4.15 0.93,1.3 1.4,2.95 1.4,4.97 0,2.74 -0.93,4.86 -2.8,6.35 -1.86,1.49 -4.52,2.23 -7.98,2.23 -3.61,0 -6.29,-0.78 -8.05,-2.35 -1.76,-1.56 -2.64,-3.96 -2.64,-7.17 0,-0.34 0.03,-0.9 0.08,-1.68l0 -0.12zm36.37 -1.53l5.69 0 -2.87 -12.66 -2.82 12.66zm-9.59 12.13l8.08 -30.19 8.96 0 8.15 30.19 -7.19 0 -1.77 -7.59 -7.68 0 -1.73 7.59 -6.82 0zm37.84 -4.46l2.96 0c1.51,0 2.57,-0.09 3.17,-0.27 0.61,-0.18 1.09,-0.5 1.45,-0.95 0.62,-0.78 1.06,-1.85 1.33,-3.21 0.26,-1.37 0.39,-3.56 0.39,-6.56 0,-2.93 -0.15,-5.06 -0.47,-6.39 -0.31,-1.34 -0.83,-2.34 -1.58,-3.01 -0.39,-0.35 -0.89,-0.59 -1.5,-0.72 -0.61,-0.14 -1.58,-0.21 -2.88,-0.21l-2.87 0 0 21.32zm-6.54 4.46l0 -30.19 10.74 0c2.18,0 3.93,0.15 5.23,0.46 1.3,0.32 2.36,0.83 3.2,1.54 1.26,1.03 2.15,2.33 2.67,3.9 0.52,1.58 0.78,4.03 0.78,7.35 0,4.28 -0.18,7.32 -0.53,9.09 -0.36,1.77 -0.97,3.27 -1.83,4.52 -0.81,1.23 -1.97,2.1 -3.43,2.59 -1.47,0.49 -4.02,0.74 -7.64,0.74l-9.19 0zm36.74 -15.09c0,4.97 0.34,8.1 1.04,9.38 0.69,1.29 1.97,1.93 3.83,1.93 1.83,0 3.08,-0.62 3.76,-1.89 0.68,-1.26 1.01,-4.4 1.01,-9.42 0,-5.02 -0.34,-8.17 -1.03,-9.45 -0.68,-1.28 -1.94,-1.92 -3.79,-1.92 -1.84,0 -3.11,0.64 -3.79,1.92 -0.69,1.28 -1.03,4.43 -1.03,9.45zm-6.82 -0.01c0,-3.2 0.17,-5.76 0.53,-7.67 0.36,-1.92 0.92,-3.36 1.68,-4.33 1.04,-1.37 2.28,-2.35 3.73,-2.94 1.44,-0.58 3.34,-0.88 5.7,-0.88 2.36,0 4.26,0.3 5.7,0.88 1.45,0.59 2.7,1.57 3.76,2.94 0.75,1 1.31,2.45 1.66,4.36 0.35,1.91 0.52,4.45 0.52,7.64 0,3.18 -0.17,5.72 -0.53,7.64 -0.36,1.91 -0.91,3.36 -1.65,4.36 -1.06,1.37 -2.31,2.35 -3.76,2.94 -1.44,0.59 -3.34,0.88 -5.7,0.88 -2.36,0 -4.26,-0.29 -5.7,-0.88 -1.45,-0.59 -2.69,-1.57 -3.73,-2.94 -0.76,-0.97 -1.32,-2.41 -1.68,-4.32 -0.36,-1.92 -0.53,-4.48 -0.53,-7.68zm37.74 -2.33l3.84 0c1.95,0 3.29,-0.33 4.05,-0.98 0.76,-0.65 1.13,-1.82 1.13,-3.51 0,-1.5 -0.41,-2.55 -1.23,-3.16 -0.83,-0.6 -2.33,-0.9 -4.5,-0.9l-3.29 0 0 8.55zm-6.44 17.43l0 -30.19 11.97 0c3.62,0 6.23,0.61 7.82,1.85 1.6,1.24 2.4,3.25 2.4,6.05 0,1.96 -0.43,3.51 -1.29,4.63 -0.85,1.14 -2.12,1.8 -3.78,2 3.18,0.7 4.84,2.96 4.97,6.76 0,0.17 0,0.3 0,0.39l0.19 4c0.07,1.14 0.23,2.05 0.51,2.74 0.28,0.68 0.72,1.27 1.31,1.77l-7.94 0c-0.18,-0.51 -0.33,-1.11 -0.42,-1.79 -0.09,-0.69 -0.15,-1.66 -0.18,-2.92l-0.1 -3.15 0 -0.81c0,-1.74 -0.45,-2.95 -1.33,-3.6 -0.88,-0.65 -2.69,-0.98 -5.41,-0.98l-2.28 0 0 13.25 -6.44 0zm37.09 -12.13l5.69 0 -2.87 -12.66 -2.82 12.66zm-9.59 12.13l8.08 -30.19 8.96 0 8.15 30.19 -7.19 0 -1.77 -7.59 -7.68 0 -1.73 7.59 -6.82 0zm30.63 -10.6l6.68 0 0 1.94c0,1.85 0.28,3.12 0.83,3.79 0.55,0.68 1.5,1.01 2.85,1.01 1.42,0 2.49,-0.3 3.23,-0.9 0.74,-0.6 1.11,-1.49 1.11,-2.66 0,-0.91 -0.26,-1.68 -0.77,-2.33 -0.51,-0.64 -1.62,-1.48 -3.33,-2.5l-3.42 -2.04c-2.96,-1.72 -4.84,-3.15 -5.64,-4.27 -0.81,-1.13 -1.2,-2.54 -1.2,-4.24 0,-2.54 0.89,-4.52 2.68,-5.96 1.79,-1.44 4.25,-2.16 7.39,-2.16 3.33,0 5.87,0.76 7.65,2.3 1.77,1.52 2.65,3.72 2.65,6.58 0,0.29 0,0.51 -0.01,0.67 0,0.15 -0.02,0.29 -0.04,0.41l-6.34 0 0 -0.8c0,-1.64 -0.32,-2.81 -0.96,-3.52 -0.63,-0.71 -1.68,-1.06 -3.14,-1.06 -1.07,0 -1.91,0.27 -2.52,0.8 -0.61,0.52 -0.92,1.26 -0.92,2.2 0,1.28 1.37,2.68 4.12,4.23l0.07 0.03 3.68 2.1c2.63,1.47 4.4,2.85 5.33,4.15 0.93,1.3 1.4,2.95 1.4,4.97 0,2.74 -0.93,4.86 -2.8,6.35 -1.86,1.49 -4.52,2.23 -7.98,2.23 -3.61,0 -6.29,-0.78 -8.05,-2.35 -1.76,-1.56 -2.64,-3.96 -2.64,-7.17 0,-0.34 0.03,-0.9 0.09,-1.68l0 -0.12z"/>
  </g>
  <g id="_1767840137520">
   <polygon class="fil0" points="178.68,167.59 200.09,167.59 200.09,465.81 178.68,465.81 "/>
   <g>
    <g>
     <path class="fil3 str1" d="M179.68 336.11c-2.84,-0.51 -5.69,-1.02 -8.54,-1.53 -60.92,-10.93 -14.58,-19.28 13.08,-24.58 4.14,-0.79 8.28,-1.6 12.42,-2.44 6.66,-1.34 13.32,-2.69 19.99,-4.04 -10.23,3.66 -19.75,6.49 -28.84,12.61 -6.43,4.33 -8.35,11.18 -8.11,19.98z"/>
     <path class="fil3 str1" d="M198.53 282.13c2.88,0.51 5.77,1.01 8.66,1.52 61.81,10.82 14.8,19.1 -13.27,24.36 -4.2,0.78 -8.4,1.58 -12.6,2.41 -6.76,1.33 -13.52,2.67 -20.28,4.01 10.38,-3.63 20.04,-6.44 29.26,-12.5 6.52,-4.29 8.96,-8.75 8.23,-19.8z"/>
    </g>
    <g>
     <path class="fil3 str1" d="M179.68 279.46c-2.84,-0.51 -5.69,-1.02 -8.54,-1.53 -60.92,-10.92 -14.58,-19.27 13.08,-24.57 4.14,-0.8 8.28,-1.61 12.42,-2.44 6.66,-1.35 13.32,-2.7 19.99,-4.04 -10.23,3.65 -19.75,6.49 -28.84,12.61 -6.43,4.33 -8.35,11.18 -8.11,19.97z"/>
     <path class="fil3 str2" d="M198.53 225.48c2.88,0.51 5.77,1.02 8.66,1.52 61.81,10.83 14.8,19.11 -13.27,24.36 -4.2,0.79 -8.4,1.59 -12.6,2.42 -6.76,1.33 -13.52,2.67 -20.28,4 10.38,-3.62 20.04,-6.43 29.26,-12.5 6.52,-4.29 8.96,-8.75 8.23,-19.8z"/>
    </g>
    <g>
     <path class="fil3 str1" d="M179.68 222.84c-2.84,-0.51 -5.69,-1.02 -8.54,-1.53 -60.92,-10.92 -14.58,-19.27 13.08,-24.57 4.14,-0.8 8.28,-1.61 12.42,-2.44 6.66,-1.35 13.32,-2.7 19.99,-4.04 -10.23,3.65 -19.75,6.49 -28.84,12.61 -6.43,4.33 -8.35,11.18 -8.11,19.97z"/>
     <path class="fil3 str1" d="M198.53 168.86c2.88,0.51 5.77,1.02 8.66,1.52 61.81,10.83 14.8,19.11 -13.27,24.36 -4.2,0.79 -8.4,1.59 -12.6,2.42 -6.76,1.33 -13.52,2.67 -20.28,4 10.38,-3.62 20.04,-6.43 29.26,-12.5 6.52,-4.29 8.96,-8.75 8.23,-19.8z"/>
    </g>
   </g>
   <polygon class="fil0" points="204.84,367.48 204.84,339.49 224.94,339.49 "/>
  </g>
  <polygon class="fil4" points="590.13,464.96 590.13,336.63 614.73,336.63 648.12,426.36 647.47,336.63 670,336.63 670,464.96 645.65,464.96 612,375.05 612.65,464.96 "/>
  <path class="fil4" d="M466.17 400.88c0,-13.34 0.62,-24.03 1.9,-32.01 1.28,-7.98 3.3,-13.98 6,-18.02 3.73,-5.72 8.17,-9.8 13.34,-12.26 5.15,-2.45 11.95,-3.68 20.4,-3.68 8.45,0 15.24,1.23 20.39,3.68 5.18,2.46 9.64,6.54 13.43,12.26 2.7,4.15 4.69,10.18 5.94,18.16 1.25,7.96 1.88,18.56 1.88,31.87 0,13.26 -0.63,23.86 -1.91,31.84 -1.28,7.98 -3.27,14.04 -5.91,18.2 -3.79,5.72 -8.25,9.79 -13.43,12.25 -5.15,2.45 -11.94,3.68 -20.39,3.68 -8.45,0 -15.25,-1.23 -20.4,-3.68 -5.17,-2.46 -9.61,-6.53 -13.34,-12.25 -2.7,-4.05 -4.72,-10.05 -6,-18.03 -1.28,-7.98 -1.9,-18.67 -1.9,-32.01zm24.4 0.03c0,20.73 1.22,33.77 3.7,39.12 2.47,5.39 7.05,8.07 13.71,8.07 6.54,0 11.03,-2.62 13.45,-7.9 2.42,-5.25 3.61,-18.36 3.61,-39.29 0,-20.93 -1.22,-34.05 -3.67,-39.4 -2.44,-5.33 -6.96,-8.01 -13.56,-8.01 -6.6,0 -11.12,2.68 -13.57,8.01 -2.45,5.35 -3.67,18.47 -3.67,39.4z"/>
  <path class="fil4" d="M348.98 464.96l0 -128.33 42.8 0c12.95,0 22.3,2.61 27.99,7.87 5.72,5.27 8.56,13.83 8.56,25.72 0,8.33 -1.53,14.9 -4.6,19.71 -3.05,4.8 -7.57,7.62 -13.52,8.47 11.35,2.99 17.3,12.58 17.78,28.73 0,0.74 0,1.28 0,1.68l0.68 16.98c0.23,4.84 0.83,8.7 1.83,11.63 0.99,2.91 2.55,5.44 4.66,7.54l-28.39 0c-0.65,-2.16 -1.16,-4.69 -1.5,-7.62 -0.32,-2.93 -0.54,-7.06 -0.66,-12.37l-0.34 -13.43 0 -3.41c0,-7.43 -1.59,-12.55 -4.75,-15.33 -3.16,-2.76 -9.61,-4.16 -19.34,-4.16l-8.16 0 0 56.32 -23.04 0zm23.04 -74.06l13.73 0c6.97,0 11.78,-1.4 14.48,-4.19 2.7,-2.75 4.04,-7.73 4.04,-14.9 0,-6.4 -1.48,-10.87 -4.41,-13.43 -2.96,-2.56 -8.3,-3.84 -16.1,-3.84l-11.74 0 0 36.36z"/>
  <path class="fil4" d="M285.26 417.81l23.21 0c0,0.52 0.03,1.33 0.09,2.4 0.05,1.06 0.08,1.89 0.08,2.51 0,14.54 -3.13,25.33 -9.39,32.4 -6.23,7.06 -15.78,10.57 -28.67,10.57 -6.11,0 -11.37,-0.78 -15.75,-2.31 -4.38,-1.57 -8.17,-3.99 -11.32,-7.26 -4.33,-4.35 -7.4,-10.35 -9.16,-17.97 -1.79,-7.65 -2.68,-20.93 -2.68,-39.91 0,-12.97 0.54,-23.27 1.6,-30.92 1.05,-7.67 2.67,-13.36 4.92,-17.13 3.44,-5.78 7.71,-9.96 12.83,-12.56 5.11,-2.59 11.63,-3.88 19.59,-3.88 13,0 22.47,3.32 28.39,9.96 5.91,6.67 8.9,17.36 8.96,32.07l-23.21 0 0 -3.01c0,-6.81 -1.14,-11.89 -3.39,-15.24 -2.24,-3.35 -5.66,-5.02 -10.26,-5.02 -5.75,0 -9.65,2.31 -11.72,6.94 -2.08,4.64 -3.13,17.44 -3.13,38.43 0,22.66 1.02,36.47 3.04,41.36 2.02,4.91 5.92,7.36 11.64,7.36 5.31,0 9.04,-1.92 11.17,-5.77 2.11,-3.83 3.16,-10.94 3.16,-21.29l0 -1.73z"/>
  <polygon class="fil4" points="38.97,464.96 38.97,336.63 74.95,336.63 92.55,419.71 110.13,336.63 146.14,336.63 146.14,464.96 123.27,464.96 123.78,351.13 99.89,464.96 85.21,464.96 61.26,351.13 61.83,464.96 "/>
 </g>
</svg>
